<?xml version="1.0" encoding="UTF-8"?>
<svg version="1.1" width="36" height="36" viewBox="0 0 36 36" xmlns="http://www.w3.org/2000/svg">
 <circle cx="18" cy="18" r="17.846" fill="#434d54" stop-color="#000000" stroke-dasharray="4.37461, 13.1238" stroke-linecap="round" stroke-linejoin="round" stroke-opacity=".55269" stroke-width="4.3746"/>
 <path d="m28.101 15.669h-7.7696v-7.7696c0-1.2874-1.0435-2.3309-2.3309-2.3309-1.2874 0-2.3309 1.0435-2.3309 2.3309v7.7696h-7.7696c-1.2874 0-2.3309 1.0435-2.3309 2.3309 0 1.2874 1.0435 2.3309 2.3309 2.3309h7.7696v7.7696c0 1.2874 1.0435 2.3309 2.3309 2.3309 1.2874 0 2.3309-1.0435 2.3309-2.3309v-7.7696h7.7696c1.2874 0 2.3309-1.0435 2.3309-2.3309 0-1.2874-1.0435-2.3309-2.3309-2.3309z" fill="#fff" stroke-width=".77696"/>
</svg>
